<?xml version="1.0" encoding="UTF-8"?>
<svg xmlns="http://www.w3.org/2000/svg" xmlns:xlink="http://www.w3.org/1999/xlink" width="224pt" height="256pt" viewBox="0 0 224 256" version="1.1">
<g id="surface1">
<path style=" stroke:none;fill-rule:nonzero;fill:rgb(0%,0%,0%);fill-opacity:1;" d="M 95.25 33.449219 L 106.351562 22.351562 C 111.050781 17.648438 118.648438 17.648438 123.300781 22.351562 L 220.5 119.5 C 225.199219 124.199219 225.199219 131.800781 220.5 136.449219 L 123.300781 233.648438 C 118.601562 238.351562 111 238.351562 106.351562 233.648438 L 95.25 222.550781 C 90.5 217.800781 90.601562 210.050781 95.449219 205.398438 L 155.699219 148 L 12 148 C 5.351562 148 0 142.648438 0 136 L 0 120 C 0 113.351562 5.351562 108 12 108 L 155.699219 108 L 95.449219 50.601562 C 90.550781 45.949219 90.449219 38.199219 95.25 33.449219 Z M 95.25 33.449219 "/>
</g>
</svg>
